<?xml version="1.0" standalone="no"?>
<!DOCTYPE svg PUBLIC "-//W3C//DTD SVG 20010904//EN"
 "http://www.w3.org/TR/2001/REC-SVG-20010904/DTD/svg10.dtd">
<svg version="1.0" xmlns="http://www.w3.org/2000/svg"
 width="700.000000pt" height="700.000000pt" viewBox="0 0 700.000000 700.000000"
 preserveAspectRatio="xMidYMid meet">
<metadata>
Created by potrace 1.11, written by Peter Selinger 2001-2013
</metadata>
<g transform="translate(0.000000,700.000000) scale(0.100000,-0.100000)"
fill="#000000" stroke="none">
<path d="M4344 5861 c-65 -39 -132 -235 -203 -596 -19 -91 -79 -437 -86 -493
-2 -12 -9 -55 -15 -95 -13 -83 -13 -84 -30 -202 -7 -49 -16 -93 -19 -97 -3 -4
-24 15 -46 41 -94 113 -198 120 -287 18 -98 -112 -179 -294 -308 -687 l-67
-205 -69 -2 c-224 -5 -408 -178 -710 -670 -37 -60 -78 -128 -92 -152 -75 -133
-276 -463 -357 -585 -351 -534 -667 -780 -1102 -862 -49 -9 -95 -17 -103 -19
-8 -2 -46 -6 -85 -10 -38 -4 -86 -9 -105 -11 -19 -2 -118 -7 -220 -10 -190 -6
-220 -13 -207 -48 4 -9 19 -16 34 -17 124 -4 2522 1 2603 6 223 13 342 56 450
165 180 181 301 524 445 1260 3 14 17 88 31 165 14 77 27 141 29 143 2 2 9 -7
16 -20 19 -32 28 -48 75 -125 22 -38 101 -169 174 -293 249 -418 413 -645 604
-835 248 -246 470 -356 866 -429 160 -30 293 -36 755 -37 471 -1 444 -2 452
17 13 35 -11 37 -344 40 -338 3 -612 11 -673 20 -234 34 -373 195 -504 584
-54 162 -128 447 -160 620 -4 21 -12 65 -41 210 -2 13 -7 42 -11 65 -3 22 -10
59 -15 82 -8 38 -81 478 -94 568 -3 22 -10 65 -15 95 -5 30 -19 120 -30 200
-11 80 -24 170 -30 200 -8 52 -17 114 -24 170 -2 14 -8 57 -14 95 -18 111 -73
477 -77 505 -11 82 -52 327 -102 600 -2 14 -19 95 -38 180 -82 378 -155 509
-251 451z m93 -111 c33 -67 72 -191 99 -315 18 -83 51 -248 59 -290 15 -85 54
-315 60 -350 6 -45 24 -157 30 -195 2 -14 9 -56 15 -95 6 -38 13 -81 15 -95 2
-14 7 -45 10 -70 3 -25 10 -70 15 -100 5 -30 12 -75 15 -100 3 -25 8 -56 10
-70 8 -44 14 -84 20 -135 3 -27 10 -72 15 -100 5 -27 11 -68 14 -90 9 -76 34
-233 75 -495 11 -69 23 -143 26 -165 3 -22 10 -62 15 -90 5 -27 12 -66 15 -85
12 -76 47 -271 70 -385 137 -692 268 -1047 449 -1212 l55 -51 -37 9 c-122 27
-237 95 -343 200 -178 177 -339 496 -509 1009 -61 183 -88 270 -150 475 -52
175 -73 246 -123 415 -135 452 -216 689 -299 867 -23 49 -24 55 -12 125 7 40
15 97 19 127 4 30 9 63 11 75 2 11 6 38 10 61 11 76 60 370 69 415 2 14 7 39
10 55 76 446 165 734 224 723 9 -2 30 -32 48 -68z m-572 -1326 c36 -27 120
-148 112 -161 -3 -4 -8 -35 -11 -68 -4 -33 -9 -71 -11 -85 -9 -57 -24 -158
-30 -200 -3 -25 -12 -85 -20 -135 -8 -49 -17 -110 -20 -135 -3 -25 -15 -99
-25 -165 -11 -66 -22 -138 -25 -160 -4 -22 -13 -80 -21 -130 -9 -49 -16 -98
-17 -107 -1 -10 -2 -18 -3 -18 -1 0 -36 46 -77 103 -128 175 -270 312 -359
346 l-26 10 35 113 c181 578 323 843 440 822 14 -3 40 -16 58 -30z m295 -604
c32 -96 104 -328 160 -515 154 -519 196 -653 267 -865 179 -533 330 -826 525
-1020 67 -67 58 -68 -59 -4 -59 32 -148 88 -163 104 -3 3 -30 25 -59 50 -180
148 -390 414 -602 762 -91 149 -380 639 -385 652 -5 13 0 57 22 186 10 62 24
148 29 185 3 22 10 63 15 90 5 28 11 70 15 95 5 44 49 339 61 417 3 21 7 47 9
58 24 186 21 183 66 75 22 -52 67 -174 99 -270z m-900 -344 c0 -8 -11 -50 -24
-93 -13 -43 -45 -150 -71 -238 -296 -1012 -475 -1432 -710 -1670 -158 -160
-325 -226 -633 -250 -121 -10 -846 -14 -836 -6 5 4 49 18 97 30 247 64 440
181 652 395 202 204 340 400 661 941 49 83 96 164 105 180 32 60 163 262 232
360 85 120 244 284 307 315 65 33 118 49 173 49 35 1 47 -3 47 -13z m134 -51
c96 -63 236 -220 344 -386 l42 -66 -40 -224 c-49 -275 -70 -375 -126 -599
-152 -615 -290 -840 -552 -905 -98 -24 -127 -26 -542 -31 -379 -4 -402 -3
-360 11 325 115 531 379 755 965 54 140 145 416 219 665 119 393 144 479 161
543 11 40 23 62 32 62 8 0 38 -16 67 -35z"/>
</g>
</svg>
