<?xml version="1.0" standalone="no"?>
<!DOCTYPE svg PUBLIC "-//W3C//DTD SVG 20010904//EN"
 "http://www.w3.org/TR/2001/REC-SVG-20010904/DTD/svg10.dtd">
<svg version="1.0" xmlns="http://www.w3.org/2000/svg"
 width="600.000000pt" height="600.000000pt" viewBox="0 0 600.000000 600.000000"
 preserveAspectRatio="xMidYMid meet">
<metadata>
Created by potrace 1.11, written by Peter Selinger 2001-2013
</metadata>
<g transform="translate(0.000000,600.000000) scale(0.100000,-0.100000)"
fill="#000000" stroke="none">
<path d="M3583 4782 c-53 -45 -91 -152 -143 -397 -16 -78 -34 -170 -39 -205
-6 -36 -13 -77 -16 -93 -13 -73 -25 -146 -30 -187 -3 -25 -10 -70 -15 -100 -6
-30 -11 -67 -12 -82 -3 -32 -19 -36 -39 -11 -24 28 -78 45 -122 37 -74 -12
-171 -139 -237 -309 -4 -11 -13 -33 -20 -50 -21 -51 -120 -359 -120 -372 0 -7
-10 -13 -22 -13 -189 -4 -326 -128 -558 -506 -50 -80 -90 -147 -90 -149 0 -6
-172 -300 -230 -395 -193 -314 -370 -506 -570 -618 -69 -38 -212 -87 -304
-103 -83 -14 -105 -32 -100 -84 1 -21 8 -43 14 -49 12 -12 1389 -15 1572 -3
284 18 409 123 528 447 43 117 121 430 160 640 17 96 34 182 36 190 5 13 53
-61 136 -211 320 -570 551 -829 855 -957 83 -35 280 -87 368 -97 33 -3 74 -8
90 -10 17 -3 191 -7 389 -10 313 -5 362 -4 382 10 28 18 31 55 6 78 -15 13
-61 16 -337 18 -374 3 -465 10 -532 41 -127 59 -218 223 -308 551 -14 53 -28
105 -30 115 -59 277 -82 392 -111 577 -2 17 -9 53 -14 80 -5 28 -12 68 -15 90
-3 22 -10 67 -15 100 -5 33 -12 78 -15 100 -3 22 -7 49 -10 60 -2 11 -7 43
-10 70 -3 28 -10 75 -15 105 -5 30 -12 75 -15 100 -3 25 -8 56 -10 70 -3 14
-7 42 -10 64 -4 35 -9 73 -20 146 -2 14 -6 43 -9 65 -3 22 -17 117 -31 210
-15 94 -28 186 -31 205 -2 19 -7 44 -9 56 -3 12 -7 39 -11 60 -12 85 -46 271
-54 304 -5 19 -12 51 -15 70 -11 65 -56 222 -79 274 -25 57 -76 106 -109 106
-12 0 -36 -13 -54 -28z m72 -122 c23 -45 85 -285 101 -390 2 -14 6 -36 9 -50
6 -26 9 -47 20 -120 4 -25 9 -54 11 -65 4 -18 29 -179 39 -245 2 -14 11 -71
19 -126 9 -56 18 -123 21 -150 3 -27 8 -56 10 -64 2 -8 7 -37 10 -65 3 -27 7
-61 10 -75 2 -14 7 -45 10 -70 3 -25 8 -56 10 -70 2 -14 7 -45 10 -70 3 -25
10 -70 15 -100 5 -30 12 -75 15 -100 3 -25 8 -56 10 -70 6 -33 12 -74 20 -130
6 -48 51 -318 60 -360 3 -14 7 -38 10 -55 3 -16 7 -41 9 -55 3 -14 14 -74 26
-135 76 -385 168 -666 261 -797 29 -40 10 -35 -57 15 -69 50 -158 155 -200
232 -74 139 -99 192 -147 311 -72 182 -159 456 -287 904 -90 314 -162 539
-217 675 l-49 120 13 85 c7 47 15 99 17 115 3 17 7 44 10 60 2 17 7 48 11 70
19 128 57 355 65 385 5 19 11 53 15 75 8 58 53 234 69 275 8 19 17 43 20 53 8
24 13 22 31 -13z m-398 -1067 c16 -21 33 -43 36 -50 4 -6 -7 -105 -23 -220
-16 -114 -32 -221 -34 -238 -22 -152 -38 -259 -41 -273 -2 -10 -6 -43 -10 -75
-4 -31 -10 -57 -14 -57 -4 0 -25 26 -48 58 -56 75 -151 171 -202 202 -22 14
-41 28 -41 32 0 3 29 95 65 203 90 273 174 444 229 465 27 10 48 -1 83 -47z
m215 -523 c33 -107 68 -224 79 -260 182 -630 239 -808 324 -1020 54 -134 144
-309 186 -362 38 -48 29 -48 -30 -2 -134 107 -316 331 -440 544 -18 30 -45 76
-61 102 -15 25 -39 66 -53 90 -13 23 -68 119 -122 212 -54 93 -98 174 -98 180
0 11 10 75 17 111 4 21 12 75 21 140 3 22 10 69 16 105 5 36 12 76 14 90 2 14
11 79 21 145 9 66 18 127 20 135 1 8 3 29 4 45 1 29 2 29 21 -15 11 -25 48
-133 81 -240z m-722 -178 c0 -4 -18 -70 -41 -147 -22 -77 -42 -147 -44 -155
-27 -120 -193 -626 -251 -766 -93 -226 -165 -346 -274 -455 -96 -96 -174 -134
-340 -164 -19 -4 -150 -9 -290 -12 l-255 -4 65 31 c92 45 155 86 230 149 205
177 318 335 655 916 221 381 341 536 456 590 54 25 89 32 89 17z m199 -109
c42 -43 105 -119 139 -170 64 -94 66 -103 47 -173 -2 -8 -6 -31 -9 -50 -3 -19
-8 -46 -10 -60 -3 -14 -7 -41 -10 -60 -3 -19 -15 -80 -26 -135 -11 -55 -23
-111 -25 -125 -3 -14 -23 -96 -45 -182 -89 -352 -183 -529 -313 -592 -60 -29
-85 -35 -187 -42 -100 -7 -402 -11 -418 -6 -7 2 7 16 30 32 137 87 270 281
384 560 66 162 179 510 265 817 51 179 78 263 88 263 7 0 48 -35 90 -77z"/>
</g>
</svg>
